<?xml version="1.0" encoding="utf-8"?>

<!-- Generator: Adobe Illustrator 16.0.0, SVG Export Plug-In . SVG Version: 6.00 Build 0)  -->

<!DOCTYPE svg PUBLIC "-//W3C//DTD SVG 1.1//EN" "http://www.w3.org/Graphics/SVG/1.1/DTD/svg11.dtd">

<svg version="1.1" id="Layer_1" xmlns="http://www.w3.org/2000/svg" xmlns:xlink="http://www.w3.org/1999/xlink" x="0px" y="0px"

	 width="496px" height="525px" viewBox="0 0 496 525" enable-background="new 0 0 496 525" xml:space="preserve">

<title>01</title>

<path fill="#cfcfcf" d="M316.212,182.967L217.8,276.2l-40.86-43.164c-6.676-6.993-17.755-7.25-24.748-0.575

	c-6.991,6.674-7.25,17.754-0.574,24.747l0,0l52.947,55.249c3.148,3.308,7.518,5.18,12.084,5.18

	c4.496,0.222,8.878-1.449,12.087-4.604l111.073-105.319c6.742-6.556,6.998-17.302,0.575-24.171

	c-6.194-6.826-16.749-7.338-23.575-1.144C316.605,182.583,316.406,182.773,316.212,182.967z"/>

<path fill="#cfcfcf" d="M246,36.212c-116.967,0-211.788,94.82-211.788,211.788c0,116.967,94.821,211.788,211.788,211.788

	S457.788,364.967,457.788,248S362.967,36.212,246,36.212L246,36.212z M246,425.257c-97.896,0-177.257-79.36-177.257-177.257

	c0-97.897,79.36-177.257,177.257-177.257S423.257,150.104,423.257,248l0,0C423.257,345.896,343.896,425.257,246,425.257L246,425.257

	L246,425.257z"/>

</svg>

